<svg xmlns="http://www.w3.org/2000/svg" viewBox="0 0 120 120" width="100%" height="100%">
    <g transform="translate(1, 0)">
        <path d="M 29,32 L 29,24 L 55,24 A 36,36 0 0 1 91,60 A 36,36 0 0 1 81,84"
              fill="none" stroke="#000000" stroke-width="10" stroke-linecap="round" />

        <path d="M 67,94 A 36,36 0 0 1 55,96 L 29,96 L 29,62"
              fill="none" stroke="#000000" stroke-width="10" stroke-linecap="round" />

        <path d="M 45,40 L 55,40 A 20,20 0 0 1 75,60 A 20,20 0 0 1 55,80 L 45,80"
              fill="none" stroke="#000000" stroke-width="6" stroke-linecap="round" />

        <circle cx="29" cy="47" r="4" fill="#000000" />
        <circle cx="74" cy="89" r="4" fill="#000000" />
        <circle cx="45" cy="60" r="4.5" fill="#000000" />
    </g>
</svg>